<?xml version="1.0" encoding="UTF-8"?>
<!DOCTYPE svg PUBLIC "-//W3C//DTD SVG 1.1//EN" "http://www.w3.org/Graphics/SVG/1.1/DTD/svg11.dtd">
<!-- Creator: CorelDRAW 2021 (64-Bit Versión de evaluación) -->
<svg xmlns="http://www.w3.org/2000/svg" xml:space="preserve" width="800mm" height="400mm" version="1.1" style="shape-rendering:geometricPrecision; text-rendering:geometricPrecision; image-rendering:optimizeQuality; fill-rule:evenodd; clip-rule:evenodd"
viewBox="0 0 80000 40000"
 xmlns:xlink="http://www.w3.org/1999/xlink"
 xmlns:xodm="http://www.corel.com/coreldraw/odm/2003">
 <defs>
  <style type="text/css">
   <![CDATA[
    .str0 {stroke:#373435;stroke-width:20;stroke-miterlimit:22.9256}
    .fil0 {fill:none}
   ]]>
  </style>
 </defs>
 <g id="Capa_x0020_1">
  <metadata id="CorelCorpID_0Corel-Layer"/>
  <path class="fil0 str0" d="M25166.47 16210.7l0 1315.75m0 1503.31l0 695m0 1081.92l0 598.16m0 1527.48l0 1388.41 -1475.82 0m-2982.21 0l-1700 0m-3000.84 0l-1700 0m-3006.46 0l-1534.67 0 0 -1388.41"/>
  <line class="fil0 str0" x1="9766.47" y1="16220.73" x2="10641.47" y2= "16220.73" />
  <line class="fil0 str0" x1="25153.29" y1="16210.7" x2="24278.29" y2= "16210.7" />
  <path class="fil0 str0" d="M10066.47 17526.45l0 1503.3m0 2375.09l0 1527.48m0 1388.41l-300 0 0 -1388.41m0 -6711.59l300 0"/>
  <path class="fil0 str0" d="M25166.47 16210.7l0 1315.75m0 1503.31l0 695m0 1081.92l0 598.16m0 1527.48l0 1388.41 -300 0m0 -1388.41l0 -1527.48m0 -2375.08l0 -1503.31m0 -774.56l0 -37.24"/>
  <path class="fil0 str0" d="M9766.47 16220.73l875 0m875 0l2.4 0m0 271.81l-877.4 0"/>
  <path class="fil0 str0" d="M9766.47 16220.73l875 0m875 0l2.4 0m0 271.81l-877.4 0"/>
  <path class="fil0 str0" d="M9766.47 16220.73l875 0m875 0l2.4 0m0 271.81l-877.4 0"/>
  <path class="fil0 str0" d="M24278.29 16510.7l-875 0 0 -300m875 0l892.81 0 0 300"/>
  <path class="fil0 str0" d="M9766.47 24020.73l0 300 1534.67 0m3006.46 0l1700 0m3000.84 0l1700 0m2982.21 0l1475.82 0 0 -300m-1475.82 0l-2982.21 0m-6400.84 0l-3006.46 0"/>
  <line class="fil0 str0" x1="10641.47" y1="16220.73" x2="10641.47" y2= "16492.54" />
  <line class="fil0 str0" x1="24278.29" y1="16210.7" x2="24278.29" y2= "16510.7" />
  <line class="fil0 str0" x1="9766.47" y1="17526.45" x2="10066.47" y2= "17526.45" />
  <line class="fil0 str0" x1="24866.47" y1="17526.45" x2="25166.47" y2= "17526.45" />
  <line class="fil0 str0" x1="9766.47" y1="19029.76" x2="10066.47" y2= "19029.75" />
  <line class="fil0 str0" x1="24866.47" y1="19029.76" x2="25166.47" y2= "19029.76" />
  <line class="fil0 str0" x1="9766.47" y1="22932.32" x2="10066.47" y2= "22932.32" />
  <line class="fil0 str0" x1="10066.47" y1="21404.84" x2="9766.47" y2= "21404.84" />
  <line class="fil0 str0" x1="24866.47" y1="22932.32" x2="25166.47" y2= "22932.32" />
  <line class="fil0 str0" x1="25166.47" y1="21404.84" x2="24866.47" y2= "21404.84" />
  <line class="fil0 str0" x1="11301.14" y1="24320.73" x2="11301.14" y2= "24020.73" />
  <line class="fil0 str0" x1="23690.65" y1="24320.73" x2="23690.65" y2= "24020.73" />
  <line class="fil0 str0" x1="14307.6" y1="24020.73" x2="14307.6" y2= "24320.73" />
  <line class="fil0 str0" x1="20708.44" y1="24020.73" x2="20708.44" y2= "24320.73" />
  <polyline class="fil0 str0" points="16007.6,24320.73 14307.6,24320.73 14307.6,24020.73 "/>
  <polyline class="fil0 str0" points="20708.44,24020.73 20708.44,24320.73 19008.44,24320.73 "/>
  <line class="fil0 str0" x1="9766.47" y1="19029.76" x2="9773.67" y2= "19679.1" />
  <line class="fil0 str0" x1="9773.67" y1="19679.1" x2="9766.47" y2= "20761.02" />
  <line class="fil0 str0" x1="16007.6" y1="24320.73" x2="19008.44" y2= "24320.73" />
  <line class="fil0 str0" x1="25166.47" y1="19724.76" x2="25166.47" y2= "20806.68" />
  <line class="fil0 str0" x1="9766.47" y1="20761.02" x2="9766.47" y2= "21404.84" />
  <rect class="fil0 str0" x="11165.61" y="20788.16" width="4000" height="1148.45"/>
  <path class="fil0 str0" d="M23416.47 14578.83l0 -1174.5m0 -1110.02l0 -773.52m-3500.03 -4000.01l-4759.67 0m-3640.3 4000.01l0 801.7m0 1100l0 1174.5"/>
  <line class="fil0 str0" x1="24488.06" y1="13964.49" x2="24488.06" y2= "12561.11" />
  <line class="fil0 str0" x1="24488.06" y1="9675.05" x2="24488.06" y2= "8215.79" />
  <line class="fil0 str0" x1="24781.82" y1="9721.44" x2="24781.82" y2= "12508.37" />
  <path class="fil0 str0" d="M27481.82 14031.75l0 1375.65 -600 0m-1500 0l-600 0 0 -1395.55m0 -1503.48l0 -2786.93m0 -1540.14l0 -1358.9 600 0m1500 0l600 0 0 1378.8m0 1540.14l0 2786.93"/>
  <line class="fil0 str0" x1="27479.3" y1="8201.2" x2="27481.82" y2= "8201.2" />
  <line class="fil0 str0" x1="14043.87" y1="6404.26" x2="14046.39" y2= "6404.26" />
  <line class="fil0 str0" x1="27481.82" y1="12528.27" x2="27479.3" y2= "12528.27" />
  <line class="fil0 str0" x1="27479.3" y1="9741.34" x2="27481.82" y2= "9741.34" />
  <line class="fil0 str0" x1="27773.06" y1="13964.49" x2="27773.06" y2= "12561.11" />
  <line class="fil0 str0" x1="27773.06" y1="9675.05" x2="27773.06" y2= "8201.2" />
  <path class="fil0 str0" d="M24781.82 14011.85l0 -47.36m0 -1403.38l0 -52.74"/>
  <path class="fil0 str0" d="M24781.82 9721.44l0 -46.39m0 -1459.26l0 -34.49"/>
  <path class="fil0 str0" d="M27479.3 14031.75l0.11 -67.26m2.35 -1403.38l0.06 -32.84"/>
  <path class="fil0 str0" d="M27481.82 9741.34l0 -66.29m0 -1459.26l0 -14.59"/>
  <path class="fil0 str0" d="M24488.06 12561.11l293.76 0m2699.94 0l291.3 0"/>
  <path class="fil0 str0" d="M24488.06 9675.05l293.76 0m2700 0l291.24 0"/>
  <path class="fil0 str0" d="M24488.06 8215.79l293.76 0m2700 0l291.24 0"/>
  <path class="fil0 str0" d="M11048.68 9829.63l0 -2365m300 -1090.96l547.61 0m1600 0l547.63 0m304.76 1090.96l0 2365m-304.81 1044.04l-547.61 0m-1600 0l-547.58 0"/>
  <line class="fil0 str0" x1="14043.92" y1="6373.67" x2="14043.92" y2= "6404.26" />
  <line class="fil0 str0" x1="24488.06" y1="13964.49" x2="24781.82" y2= "13964.49" />
  <line class="fil0 str0" x1="27479.41" y1="13964.49" x2="27773.06" y2= "13964.49" />
  <polyline class="fil0 str0" points="11348.68,9829.63 11048.68,9829.63 11048.68,7464.63 11348.68,7464.63 "/>
  <line class="fil0 str0" x1="14043.87" y1="9829.63" x2="14348.68" y2= "9829.63" />
  <line class="fil0 str0" x1="14043.87" y1="7464.63" x2="14348.68" y2= "7464.63" />
  <path class="fil0 str0" d="M14043.87 6404.26l0 1060.37m0 2365l0 1044.04"/>
  <line class="fil0 str0" x1="11348.68" y1="9829.63" x2="11348.68" y2= "10873.67" />
  <line class="fil0 str0" x1="11348.68" y1="7464.63" x2="11348.68" y2= "6373.67" />
  <polyline class="fil0 str0" points="25381.82,15407.4 25381.82,15707.4 26881.82,15707.4 26881.82,15407.4 "/>
  <polyline class="fil0 str0" points="26881.82,6822.4 26881.82,6522.4 25381.82,6522.4 25381.82,6822.4 "/>
  <polyline class="fil0 str0" points="11896.29,6373.67 11896.29,6673.67 13496.29,6673.67 13496.29,6373.67 "/>
  <polyline class="fil0 str0" points="13496.26,10873.67 13496.26,10573.67 11896.26,10573.67 11896.26,10873.67 "/>
  <line class="fil0 str0" x1="7267.38" y1="13891.09" x2="7267.38" y2= "12487.71" />
  <line class="fil0 str0" x1="7267.38" y1="9601.65" x2="7267.38" y2= "8142.39" />
  <line class="fil0 str0" x1="7561.14" y1="9648.04" x2="7561.14" y2= "12434.97" />
  <path class="fil0 str0" d="M10261.14 13958.35l0 1375.65 -600 0m-1500 0l-600 0 0 -1395.55m0 -1503.48l0 -2786.93m0 -1540.14l0 -1358.9 600 0m1500 0l600 0 0 1378.8m0 1540.14l0 2786.93"/>
  <line class="fil0 str0" x1="10258.62" y1="8127.8" x2="10261.14" y2= "8127.8" />
  <line class="fil0 str0" x1="23589.42" y1="6321.44" x2="23591.94" y2= "6321.44" />
  <line class="fil0 str0" x1="10261.14" y1="12454.87" x2="10258.62" y2= "12454.87" />
  <line class="fil0 str0" x1="10258.62" y1="9667.94" x2="10261.14" y2= "9667.94" />
  <line class="fil0 str0" x1="10552.38" y1="13891.09" x2="10552.38" y2= "12487.71" />
  <line class="fil0 str0" x1="10552.38" y1="9601.65" x2="10552.38" y2= "8127.8" />
  <path class="fil0 str0" d="M7561.14 13938.45l0 -47.36m0 -1403.38l0 -52.74"/>
  <path class="fil0 str0" d="M7561.14 9648.04l0 -46.39m0 -1459.26l0 -34.49"/>
  <path class="fil0 str0" d="M10258.62 13958.35l0.11 -67.26m2.35 -1403.38l0.06 -32.84"/>
  <path class="fil0 str0" d="M10261.14 9667.94l0 -66.29m0 -1459.26l0 -14.59"/>
  <path class="fil0 str0" d="M7267.38 12487.71l293.76 0m2699.94 0l291.3 0"/>
  <path class="fil0 str0" d="M7267.38 9601.65l293.76 0m2700 0l291.24 0"/>
  <path class="fil0 str0" d="M7267.38 8142.39l293.76 0m2700 0l291.24 0"/>
  <path class="fil0 str0" d="M20594.23 9746.81l0 -2365m300 -1090.96l547.61 0m1600 0l547.63 0m304.76 1090.96l0 2365m-304.81 1044.04l-547.61 0m-1600 0l-547.58 0"/>
  <line class="fil0 str0" x1="23589.47" y1="6290.85" x2="23589.47" y2= "6321.44" />
  <line class="fil0 str0" x1="7267.38" y1="13891.09" x2="7561.14" y2= "13891.09" />
  <line class="fil0 str0" x1="10258.73" y1="13891.09" x2="10552.38" y2= "13891.09" />
  <polyline class="fil0 str0" points="20894.23,9746.81 20594.23,9746.81 20594.23,7381.81 20894.23,7381.81 "/>
  <line class="fil0 str0" x1="23589.42" y1="9746.81" x2="23894.23" y2= "9746.81" />
  <line class="fil0 str0" x1="23589.42" y1="7381.81" x2="23894.23" y2= "7381.81" />
  <path class="fil0 str0" d="M23589.42 6321.44l0 1060.37m0 2365l0 1044.04"/>
  <line class="fil0 str0" x1="20894.23" y1="9746.81" x2="20894.23" y2= "10790.85" />
  <line class="fil0 str0" x1="20894.23" y1="7381.81" x2="20894.23" y2= "6290.85" />
  <polyline class="fil0 str0" points="8161.14,15334 8161.14,15634 9661.14,15634 9661.14,15334 "/>
  <polyline class="fil0 str0" points="9661.14,6749 9661.14,6449 8161.14,6449 8161.14,6749 "/>
  <polyline class="fil0 str0" points="21441.84,6290.85 21441.84,6590.85 23041.84,6590.85 23041.84,6290.85 "/>
  <polyline class="fil0 str0" points="23041.81,10790.85 23041.81,10490.85 21441.81,10490.85 21441.81,10790.85 "/>
  <rect class="fil0 str0" transform="matrix(2.02346E-14 -0.764016 0.764018 2.02347E-14 21744.2 9314.32)" width="1963.31" height="1308.87"/>
  <path class="fil0 str0" d="M15016.44 11020.78l0 -1549.99m0 -900l0 -1050.01 4900 0 0 1050.01m0 900l0 1549.99"/>
  <line class="fil0 str0" x1="9766.47" y1="16220.73" x2="9766.47" y2= "16492.54" />
  <line class="fil0 str0" x1="9766.47" y1="16492.54" x2="9766.47" y2= "17526.45" />
  <rect class="fil0 str0" x="16256.74" y="20617.92" width="2700" height="400"/>
  <rect class="fil0 str0" transform="matrix(2.65802E-14 -0.990422 1.00361 2.62309E-14 24030.4 19867.3)" width="2726.11" height="398.56"/>
  <rect class="fil0 str0" transform="matrix(2.65802E-14 -0.990422 1.00361 2.62309E-14 10495 19888.2)" width="2726.11" height="398.56"/>
  <rect class="fil0 str0" x="16116.46" y="11020.79" width="2700" height="400"/>
  <rect class="fil0 str0" x="15616.44" y="8020.78" width="3700" height="2500"/>
  <rect class="fil0 str0" transform="matrix(2.52594E-14 -0.95374 2.00723 5.31605E-14 26308.4 19131.3)" width="2726.11" height="398.56"/>
  <rect class="fil0 str0" transform="matrix(2.52594E-14 -0.95374 2.00723 5.31605E-14 26308.4 22996.7)" width="2726.11" height="398.56"/>
  <rect class="fil0 str0" transform="matrix(2.52594E-14 -0.95374 2.00723 5.31605E-14 7915.99 18834)" width="2726.11" height="398.56"/>
  <rect class="fil0 str0" transform="matrix(2.52594E-14 -0.95374 2.00723 5.31605E-14 7915.99 23124.1)" width="2726.11" height="398.56"/>
  <polyline class="fil0 str0" points="15016.44,8570.79 14716.44,8570.79 14716.44,9470.79 15016.44,9470.79 "/>
  <polyline class="fil0 str0" points="19916.44,9470.79 20216.44,9470.79 20216.44,8570.79 19916.44,8570.79 "/>
  <path class="fil0 str0" d="M11516.47 11520.79l50 0m11799.99 0l50.01 0"/>
  <line class="fil0 str0" x1="13830.27" y1="11192.7" x2="15016.44" y2= "11020.78" />
  <line class="fil0 str0" x1="19916.44" y1="11020.78" x2="21127.48" y2= "11193.79" />
  <path class="fil0 str0" d="M11516.47 11520.79l55.72 0m11794.27 0l50.01 0"/>
  <line class="fil0 str0" x1="11514.07" y1="16222.45" x2="11516.47" y2= "16494.26" />
  <path class="fil0 str0" d="M11516.47 13422.49l0 1174.5m0 1100l0 797.27m300 -797.27l0 -1100m0 -1174.5l0 -1100m-300 -801.7l0 801.7"/>
  <line class="fil0 str0" x1="11514.07" y1="16222.45" x2="11516.47" y2= "16494.26" />
  <path class="fil0 str0" d="M11516.47 13422.49l0 1174.5m0 1100l0 797.27m300 -797.27l0 -1100m0 -1174.5l0 -1100m-300 -801.7l0 801.7"/>
  <line class="fil0 str0" x1="11516.47" y1="12322.49" x2="11816.47" y2= "12322.49" />
  <line class="fil0 str0" x1="11516.47" y1="13422.49" x2="11816.47" y2= "13422.49" />
  <line class="fil0 str0" x1="11514.07" y1="14596.99" x2="11816.47" y2= "14596.99" />
  <line class="fil0 str0" x1="11516.47" y1="15696.99" x2="11816.47" y2= "15696.99" />
  <path class="fil0 str0" d="M23416.47 14578.83l0 -1174.5m0 -1110.02l0 -773.52m-300 783.55l0 1099.99m0 1174.5l0 1100m300 815.43l0 -815.43"/>
  <line class="fil0 str0" x1="23116.47" y1="15678.83" x2="23416.47" y2= "15678.83" />
  <line class="fil0 str0" x1="23116.47" y1="14578.83" x2="23416.47" y2= "14578.83" />
  <line class="fil0 str0" x1="23116.47" y1="13404.33" x2="23416.47" y2= "13404.33" />
  <line class="fil0 str0" x1="23116.47" y1="12304.34" x2="23416.47" y2= "12294.31" />
  <path class="fil0 str0" d="M11569.65 11520.79l1156.62 -167.94m1103.98 -160.29l1183.01 -171.77"/>
  <line class="fil0 str0" x1="12783.15" y1="11744.59" x2="13887.13" y2= "11584.3" />
  <line class="fil0 str0" x1="12726.27" y1="11352.86" x2="12783.15" y2= "11744.6" />
  <line class="fil0 str0" x1="13830.25" y1="11192.56" x2="13887.13" y2= "11584.31" />
  <path class="fil0 str0" d="M23388.26 11520.79l-1156.62 -167.94m-1103.98 -160.29l-1183.01 -171.77"/>
  <line class="fil0 str0" x1="22174.76" y1="11744.59" x2="21070.78" y2= "11584.3" />
  <line class="fil0 str0" x1="19944.65" y1="11020.79" x2="19944.65" y2= "11024.81" />
  <line class="fil0 str0" x1="22231.64" y1="11352.86" x2="22174.76" y2= "11744.6" />
  <line class="fil0 str0" x1="21127.66" y1="11192.56" x2="21070.78" y2= "11584.31" />
  <line class="fil0 str0" x1="20000.97" y1="11032.86" x2="20001.52" y2= "11029.05" />
  <path class="fil0 str0" d="M14625.66 31168.29l-282.71 0 0 -5800 2052.51 0m2106.91 0l2040.58 0 0 5800 -317.29 0m-341.05 0l-1304.66 0m-2300 0l-1304.65 0"/>
  <polyline class="fil0 str0" points="19925.66,31168.29 19925.66,28668.29 20225.66,28668.29 20225.66,31168.29 "/>
  <polyline class="fil0 str0" points="14625.66,31168.29 14625.66,28668.29 14925.66,28668.29 14925.66,31168.29 "/>
  <line class="fil0 str0" x1="19884.61" y1="31168.29" x2="19925.66" y2= "31168.29" />
  <line class="fil0 str0" x1="14975.3" y1="31168.29" x2="14925.65" y2= "31168.29" />
  <path class="fil0 str0" d="M18579.95 31168.29l0 -646.64m0 -2342.83l0 -510.53 -2300 0 0 498.45m0 2342.83l0 658.72"/>
  <line class="fil0 str0" x1="18192.95" y1="25868.29" x2="16692.95" y2= "25868.29" />
  <line class="fil0 str0" x1="18192.95" y1="25868.29" x2="18502.37" y2= "25368.29" />
  <line class="fil0 str0" x1="16395.46" y1="25368.29" x2="16692.95" y2= "25868.29" />
  <circle class="fil0 str0" cx="15979.96" cy="30841.86" r="150"/>
  <circle class="fil0 str0" cx="18879.96" cy="30841.86" r="150"/>
  <circle class="fil0 str0" cx="15979.96" cy="27841.88" r="150"/>
  <circle class="fil0 str0" cx="18879.96" cy="27841.88" r="150"/>
  <path class="fil0 str0" d="M21061.41 27706.21l0 -2400 400.01 0m5099.99 0l0 2400 -1499.97 0m-1000 0l-1000.03 0"/>
  <path class="fil0 str0" d="M21061.41 30896.27l0 -3190.06m1200 800l0 1850.09"/>
  <polyline class="fil0 str0" points="16279.95,28166.74 15838.32,28166.74 15838.32,30509.57 16279.95,30509.57 "/>
  <polyline class="fil0 str0" points="18579.95,30521.65 19021.58,30521.65 19021.58,28178.82 18579.95,28178.82 "/>
  <path class="fil0 str0" d="M21861.42 28590.49l0 -3284.28m-400 0l0 3284.28"/>
  <line class="fil0 str0" x1="21461.42" y1="28590.49" x2="21861.42" y2= "28590.49" />
  <path class="fil0 str0" d="M22261.41 32056.3l3800 0 0 -250.01m0 -400l0 -249.99 -2999.99 0"/>
  <line class="fil0 str0" x1="22261.41" y1="32056.3" x2="21861.42" y2= "32056.3" />
  <polyline class="fil0 str0" points="26061.41,31806.29 24561.41,31806.29 24561.41,31406.29 26061.41,31406.29 "/>
  <line class="fil0 str0" x1="21061.41" y1="31256.3" x2="21861.42" y2= "32056.3" />
  <line class="fil0 str0" x1="22261.41" y1="30356.3" x2="23061.42" y2= "31156.3" />
  <line class="fil0 str0" x1="24959.52" y1="25807.48" x2="23459.52" y2= "25807.48" />
  <line class="fil0 str0" x1="24959.52" y1="25807.48" x2="25268.94" y2= "25307.48" />
  <line class="fil0 str0" x1="23162.03" y1="25307.48" x2="23459.52" y2= "25807.48" />
  <line class="fil0 str0" x1="23162.03" y1="25307.48" x2="21861.42" y2= "25306.21" />
  <line class="fil0 str0" x1="25268.94" y1="25307.48" x2="26561.41" y2= "25306.21" />
  <line class="fil0 str0" x1="23061.41" y1="27706.21" x2="22261.41" y2= "28506.21" />
  <line class="fil0 str0" x1="21061.41" y1="30896.27" x2="21061.41" y2= "31256.3" />
  <polyline class="fil0 str0" points="25061.44,27706.21 25061.44,27406.21 24061.44,27406.21 24061.44,27706.21 "/>
  <path class="fil0 str0" d="M13843.6 27706.21l0 -2400 -400.01 0m-5099.99 0l0 2400 1499.97 0m1000 0l1000.03 0"/>
  <path class="fil0 str0" d="M13843.6 30896.27l0 -3190.06m-1200 800l0 1850.09"/>
  <path class="fil0 str0" d="M13043.59 28590.49l0 -3284.28m400 0l0 3284.28"/>
  <line class="fil0 str0" x1="13443.59" y1="28590.49" x2="13043.59" y2= "28590.49" />
  <path class="fil0 str0" d="M12643.6 32056.3l-3800 0 0 -250.01m0 -400l0 -249.99 2999.99 0"/>
  <line class="fil0 str0" x1="12643.6" y1="32056.3" x2="13043.59" y2= "32056.3" />
  <polyline class="fil0 str0" points="8843.6,31806.29 10343.6,31806.29 10343.6,31406.29 8843.6,31406.29 "/>
  <line class="fil0 str0" x1="13843.6" y1="31256.3" x2="13043.59" y2= "32056.3" />
  <line class="fil0 str0" x1="12643.6" y1="30356.3" x2="11843.59" y2= "31156.3" />
  <line class="fil0 str0" x1="9945.49" y1="25807.48" x2="11445.49" y2= "25807.48" />
  <line class="fil0 str0" x1="9945.49" y1="25807.48" x2="9636.07" y2= "25307.48" />
  <line class="fil0 str0" x1="11742.98" y1="25307.48" x2="11445.49" y2= "25807.48" />
  <line class="fil0 str0" x1="11742.98" y1="25307.48" x2="13043.59" y2= "25306.21" />
  <line class="fil0 str0" x1="9636.07" y1="25307.48" x2="8343.6" y2= "25306.21" />
  <line class="fil0 str0" x1="11843.6" y1="27706.21" x2="12643.6" y2= "28506.21" />
  <line class="fil0 str0" x1="13843.6" y1="30896.27" x2="13843.6" y2= "31256.3" />
  <polyline class="fil0 str0" points="9843.57,27706.21 9843.57,27406.21 10843.57,27406.21 10843.57,27706.21 "/>
  <path class="fil0 str0" d="M47524.68 6961.38l0 1315.75m0 1503.31l0 695m0 1081.92l0 598.16m0 1527.48l0 1388.41 -1475.82 0m-2982.21 0l-1700 0m-3000.84 0l-1700 0m-3006.46 0l-1534.67 0 0 -1388.41m0 -1527.48l0 -643.82m0 -3234.57l0 -1305.72"/>
  <path class="fil0 str0" d="M32424.68 8277.13l0 1503.3m0 2375.09l0 1527.48m0 1388.41l-300 0 0 -1388.41m0 -1527.48l0 -643.82m0 -3234.57l0 -1305.72"/>
  <path class="fil0 str0" d="M47524.68 6961.38l0 1315.75m0 1503.31l0 695m0 1081.92l0 598.16m0 1527.48l0 1388.41 -300 0m0 -1388.41l0 -1527.48m0 -2375.08l0 -1503.31"/>
  <line class="fil0 str0" x1="32124.68" y1="7243.22" x2="32124.68" y2= "6971.41" />
  <line class="fil0 str0" x1="32124.68" y1="7243.22" x2="32124.68" y2= "6971.41" />
  <line class="fil0 str0" x1="32124.68" y1="7243.22" x2="32124.68" y2= "6971.41" />
  <path class="fil0 str0" d="M32124.68 14771.41l0 300 1534.67 0m3006.46 0l1700 0m3000.84 0l1700 0m2982.21 0l1475.82 0 0 -300m-1551.54 0l-2906.49 0m-6400.84 0l-3006.46 0"/>
  <line class="fil0 str0" x1="32124.68" y1="8277.13" x2="32424.68" y2= "8277.13" />
  <line class="fil0 str0" x1="47224.68" y1="8277.13" x2="47524.68" y2= "8277.13" />
  <line class="fil0 str0" x1="32124.68" y1="9780.44" x2="32424.68" y2= "9780.43" />
  <line class="fil0 str0" x1="47224.68" y1="9780.44" x2="47524.68" y2= "9780.44" />
  <line class="fil0 str0" x1="32124.68" y1="13683" x2="32424.68" y2= "13683" />
  <line class="fil0 str0" x1="32424.68" y1="12155.52" x2="32124.68" y2= "12155.52" />
  <line class="fil0 str0" x1="47224.68" y1="13683" x2="47524.68" y2= "13683" />
  <line class="fil0 str0" x1="47524.68" y1="12155.52" x2="47224.68" y2= "12155.52" />
  <line class="fil0 str0" x1="33659.35" y1="15071.41" x2="33659.35" y2= "14771.41" />
  <line class="fil0 str0" x1="46048.86" y1="15071.41" x2="46048.86" y2= "14771.41" />
  <line class="fil0 str0" x1="36665.81" y1="14771.41" x2="36665.81" y2= "15071.41" />
  <line class="fil0 str0" x1="43066.65" y1="14771.41" x2="43066.65" y2= "15071.41" />
  <polyline class="fil0 str0" points="38365.81,14771.41 38365.81,15071.41 36665.81,15071.41 36665.81,14771.41 "/>
  <polyline class="fil0 str0" points="43066.65,14771.41 43066.65,15071.41 41366.65,15071.41 41366.65,14771.41 "/>
  <line class="fil0 str0" x1="38365.81" y1="14771.41" x2="41366.65" y2= "14771.41" />
  <polyline class="fil0 str0" points="47524.68,11557.36 47223.21,11557.36 47223.21,10475.44 47524.68,10475.44 "/>
  <line class="fil0 str0" x1="32424.68" y1="10429.78" x2="32424.68" y2= "11511.7" />
  <line class="fil0 str0" x1="32124.68" y1="11511.7" x2="32424.68" y2= "11511.7" />
  <line class="fil0 str0" x1="32131.88" y1="10429.78" x2="32424.68" y2= "10429.78" />
  <line class="fil0 str0" x1="32124.68" y1="9780.44" x2="32131.88" y2= "10429.78" />
  <path class="fil0 str0" d="M34060.44 31303.66l0 300 -1080 0 0 -300m0 -1000l0 -300 1080 0 0 300"/>
  <path class="fil0 str0" d="M35036.38 29071.3l0 300 -3000 0 0 -300m0 -1000l0 -300 3000 0 0 300"/>
  <path class="fil0 str0" d="M34076.38 26695.42l0 300 -1080 0 0 -300m0 -1000l0 -300 1080 0 0 300"/>
  <line class="fil0 str0" x1="39819.29" y1="13781.59" x2="39819.29" y2= "13817.89" />
  <polyline class="fil0 str0" points="34799.72,10993.57 34799.72,9095.84 39823.95,9095.84 "/>
  <polyline class="fil0 str0" points="39823.95,9095.84 44848.18,9095.84 44848.18,10993.57 "/>
  <polyline class="fil0 str0" points="44848.18,10993.57 44848.18,12891.3 39823.95,12891.3 "/>
  <polyline class="fil0 str0" points="39823.95,12891.3 34799.72,12891.3 34799.72,10993.57 "/>
  <line class="fil0 str0" x1="45973.14" y1="14171.41" x2="45973.14" y2= "13871.41" />
  <rect class="fil0 str0" x="43066.65" y="13821.39" width="2906.49" height="400"/>
  <line class="fil0 str0" x1="45973.14" y1="14771.41" x2="46048.86" y2= "14771.41" />
  <path class="fil0 str0" d="M36036.38 28071.3l-1000 0m-3000 0l-1000 0m1000 -300l3000 0"/>
  <path class="fil0 str0" d="M35036.38 29371.3l-3000 0m-1000 -300l1000 0m3000 0l1000 0"/>
  <path class="fil0 str0" d="M32036.38 26695.42l960 0m1080 0l960 0m-960 300l-1080 0"/>
  <path class="fil0 str0" d="M35036.38 25695.42l-960 0m-1080 0l-960 0m960 -300l1080 0"/>
  <path class="fil0 str0" d="M32020.44 31303.66l960 0m1080 0l960 0m-960 300l-1080 0"/>
  <path class="fil0 str0" d="M35020.44 30303.66l-960 0m-1080 0l-960 0m960 -300l1080 0"/>
  <line class="fil0 str0" x1="32036.38" y1="25695.42" x2="32036.38" y2= "26695.42" />
  <line class="fil0 str0" x1="35036.38" y1="25695.42" x2="35036.38" y2= "26695.42" />
  <line class="fil0 str0" x1="31036.38" y1="28071.3" x2="31036.38" y2= "29071.3" />
  <line class="fil0 str0" x1="36036.38" y1="28071.3" x2="36036.38" y2= "29071.3" />
  <line class="fil0 str0" x1="32020.44" y1="30303.66" x2="32020.44" y2= "31303.66" />
  <line class="fil0 str0" x1="35020.44" y1="30303.66" x2="35020.44" y2= "31303.66" />
  <path class="fil0 str0" d="M36322.32 17967.15l6467.51 0m2914.12 0l1514.65 0 0 600m0 1200l0 600 -1514.65 0m-2914.12 0l-6467.51 0m-4503.72 0l0 -600m0 -1200l0 -600 1589.44 0"/>
  <path class="fil0 str0" d="M31818.6 17967.15l1589.44 0m2914.28 0l6467.51 0m2914.12 0l1514.65 0m-1514.65 -300l-2914.12 0m-6467.51 0l-2914.28 0"/>
  <path class="fil0 str0" d="M33408.04 20667.15l2914.28 0m6467.51 0l2914.12 0m1514.65 -300l-1514.65 0m-2914.12 0l-6467.51 0"/>
  <line class="fil0 str0" x1="36322.32" y1="17667.15" x2="36322.32" y2= "17967.15" />
  <line class="fil0 str0" x1="33408.04" y1="17667.15" x2="33408.04" y2= "17967.15" />
  <line class="fil0 str0" x1="42789.83" y1="17667.15" x2="42789.83" y2= "17967.15" />
  <line class="fil0 str0" x1="45703.95" y1="17667.15" x2="45703.95" y2= "17967.15" />
  <line class="fil0 str0" x1="33408.04" y1="20367.15" x2="33408.04" y2= "20667.15" />
  <line class="fil0 str0" x1="36322.32" y1="20367.15" x2="36322.32" y2= "20667.15" />
  <line class="fil0 str0" x1="42789.83" y1="20367.15" x2="42789.83" y2= "20667.15" />
  <line class="fil0 str0" x1="45703.95" y1="20367.15" x2="45703.95" y2= "20667.15" />
  <line class="fil0 str0" x1="32820.17" y1="18367.15" x2="32820.17" y2= "19967.15" />
  <path class="fil0 str0" d="M33147.77 18367.15l-327.6 0m-1001.57 0l0 -400 1329.17 0"/>
  <path class="fil0 str0" d="M32820.17 19967.15l327.6 0m-1329.17 400l0 -400"/>
  <rect class="fil0 str0" x="32820.17" y="18367.15" width="6000" height="1600"/>
  <line class="fil0 str0" x1="31818.6" y1="20367.15" x2="33408.04" y2= "20367.15" />
  <path class="fil0 str0" d="M44646.71 29715.5l0 -2440.36m0 -1497.27l0 -1015.35 600 0m1200 0l600 0 0 1015.35m0 1497.27l0 2440.36m0 1556l0 991.02 -600 0m-1200 0l-600 0 0 -991.02"/>
  <path class="fil0 str0" d="M44346.71 27244.75l0 -1380.84m300 -1101.39l0 1015.35m0 1497.27l0 2440.36m0 1556l0 991.02m-300 -1115.99l0 -1351.24"/>
  <path class="fil0 str0" d="M47346.71 29795.29l0 1351.24m-300 1115.99l0 -991.02m0 -1556l0 -2440.36m0 -1497.27l0 -1015.35m300 1101.39l0 1380.84"/>
  <path class="fil0 str0" d="M47346.71 27244.75l-300 0m-2400 0l-300 0"/>
  <line class="fil0 str0" x1="47046.71" y1="27275.14" x2="47046.71" y2= "27244.75" />
  <line class="fil0 str0" x1="44646.71" y1="27275.14" x2="44646.71" y2= "27244.75" />
  <line class="fil0 str0" x1="44646.71" y1="25777.87" x2="44646.71" y2= "25809.83" />
  <line class="fil0 str0" x1="47046.71" y1="25777.87" x2="47046.71" y2= "25809.83" />
  <line class="fil0 str0" x1="44646.71" y1="31271.5" x2="44646.71" y2= "31234.16" />
  <line class="fil0 str0" x1="47046.71" y1="31271.5" x2="47046.71" y2= "31234.16" />
  <rect class="fil0 str0" transform="matrix(9.24618E-14 -3.49116 1.09509 2.9003E-14 36248.8 31184.3)" width="229.15" height="2556.86"/>
  <line class="fil0 str0" x1="45296.71" y1="24462.52" x2="46396.71" y2= "24462.52" />
  <polyline class="fil0 str0" points="46396.71,32262.52 46396.71,32562.52 45296.71,32562.52 45296.71,32262.52 "/>
  <polyline class="fil0 str0" points="47218.6,19767.15 46918.6,19767.15 46918.6,18567.15 47218.6,18567.15 "/>
  <polyline class="fil0 str0" points="31818.6,18567.15 32118.6,18567.15 32118.6,19767.15 31818.6,19767.15 "/>
  <path class="fil0 str0" d="M31944.78 23019.57l0 500.01 15400 0 0 -500.01m0 -1200l0 -499.99m-15100 0l-300 0 0 499.99"/>
  <polyline class="fil0 str0" points="45296.71,24762.52 45296.71,24462.52 46396.71,24462.52 46396.71,24762.52 "/>
  <polyline class="fil0 str0" points="47344.78,21819.57 47044.78,21819.57 47044.78,23019.57 47344.78,23019.57 "/>
  <polyline class="fil0 str0" points="47344.78,23019.57 47044.78,23019.57 47044.78,21819.57 47344.78,21819.57 "/>
  <polyline class="fil0 str0" points="31944.78,23019.57 32244.78,23019.57 32244.78,21819.57 31944.78,21819.57 "/>
  <path class="fil0 str0" d="M32244.78 23019.57l-300 0m0 -1200l300 0"/>
  <line class="fil0 str0" x1="46636.5" y1="6961.95" x2="47511.5" y2= "6961.38" />
  <line class="fil0 str0" x1="32124.68" y1="6971.41" x2="32424.68" y2= "6971.41" />
  <path class="fil0 str0" d="M32124.68 6971.41l875 0m875 0l2.4 0m0 271.81l-877.4 0"/>
  <path class="fil0 str0" d="M32124.68 6971.41l875 0m875 0l2.4 0m0 271.81l-877.4 0"/>
  <path class="fil0 str0" d="M32124.68 6971.41l875 0m875 0l2.4 0m0 271.81l-877.4 0"/>
  <line class="fil0 str0" x1="32999.68" y1="6971.41" x2="32999.68" y2= "7243.22" />
  <line class="fil0 str0" x1="32124.68" y1="6971.41" x2="32124.68" y2= "7243.22" />
  <line class="fil0 str0" x1="33874.68" y1="6971.41" x2="33877.08" y2= "7243.22" />
  <line class="fil0 str0" x1="47511.5" y1="6961.38" x2="47211.5" y2= "6961.38" />
  <path class="fil0 str0" d="M47511.5 6961.38l-875 0m-875 0l-2.4 0m0 271.81l877.4 0"/>
  <path class="fil0 str0" d="M47511.5 6961.38l-875 0m-875 0l-2.4 0m0 271.81l877.4 0"/>
  <path class="fil0 str0" d="M47511.5 6961.38l-875 0m-875 0l-2.4 0m0 271.81l877.4 0"/>
  <line class="fil0 str0" x1="46636.5" y1="6961.38" x2="46636.5" y2= "7233.19" />
  <line class="fil0 str0" x1="45761.5" y1="6961.38" x2="45759.1" y2= "7233.19" />
  <line class="fil0 str0" x1="33874.68" y1="6971.41" x2="45761.5" y2= "6961.38" />
  <line class="fil0 str0" x1="36832.52" y1="25704.87" x2="37117.97" y2= "25704.87" />
  <path class="fil0 str0" d="M36832.52 25704.87l832.57 0m832.57 0l2.29 0"/>
  <path class="fil0 str0" d="M36832.52 25704.87l832.57 0m832.57 0l2.29 0"/>
  <path class="fil0 str0" d="M36832.52 25704.87l832.57 0m832.57 0l2.29 0"/>
  <line class="fil0 str0" x1="37665.09" y1="25704.87" x2="37665.09" y2= "25433.06" />
  <line class="fil0 str0" x1="38497.66" y1="25704.87" x2="38499.95" y2= "25433.06" />
  <path class="fil0 str0" d="M39332.52 25704.87l-832.57 0m-832.57 0l-2.29 0"/>
  <line class="fil0 str0" x1="38499.95" y1="25433.06" x2="37665.09" y2= "25433.06" />
  <line class="fil0 str0" x1="36832.52" y1="26733.07" x2="37117.97" y2= "26733.07" />
  <path class="fil0 str0" d="M36832.52 26733.07l832.57 0m832.57 0l2.29 0"/>
  <path class="fil0 str0" d="M36832.52 26733.07l832.57 0m832.57 0l2.29 0"/>
  <path class="fil0 str0" d="M36832.52 26733.07l832.57 0m832.57 0l2.29 0"/>
  <line class="fil0 str0" x1="37665.09" y1="26733.07" x2="37665.09" y2= "27004.88" />
  <line class="fil0 str0" x1="38497.66" y1="26733.07" x2="38499.95" y2= "27004.88" />
  <path class="fil0 str0" d="M39332.52 26733.07l-832.57 0m-832.57 0l-2.29 0"/>
  <line class="fil0 str0" x1="38499.95" y1="27004.88" x2="37665.09" y2= "27004.88" />
  <line class="fil0 str0" x1="36832.52" y1="25704.87" x2="36832.52" y2= "26733.07" />
  <line class="fil0 str0" x1="39332.52" y1="25704.87" x2="39332.52" y2= "26733.07" />
  <line class="fil0 str0" x1="36832.52" y1="28010.07" x2="37117.97" y2= "28010.07" />
  <path class="fil0 str0" d="M36832.52 28010.07l832.57 0m832.57 0l2.29 0"/>
  <path class="fil0 str0" d="M36832.52 28010.07l832.57 0m832.57 0l2.29 0"/>
  <path class="fil0 str0" d="M36832.52 28010.07l832.57 0m832.57 0l2.29 0"/>
  <line class="fil0 str0" x1="37665.09" y1="28010.07" x2="37665.09" y2= "27738.26" />
  <line class="fil0 str0" x1="38497.66" y1="28010.07" x2="38499.95" y2= "27738.26" />
  <path class="fil0 str0" d="M39332.52 28010.07l-832.57 0m-832.57 0l-2.29 0"/>
  <line class="fil0 str0" x1="38499.95" y1="27738.26" x2="37665.09" y2= "27738.26" />
  <line class="fil0 str0" x1="36832.52" y1="29038.27" x2="37117.97" y2= "29038.27" />
  <path class="fil0 str0" d="M36832.52 29038.27l832.57 0m832.57 0l2.29 0"/>
  <path class="fil0 str0" d="M36832.52 29038.27l832.57 0m832.57 0l2.29 0"/>
  <path class="fil0 str0" d="M36832.52 29038.27l832.57 0m832.57 0l2.29 0"/>
  <line class="fil0 str0" x1="37665.09" y1="29038.27" x2="37665.09" y2= "29310.08" />
  <line class="fil0 str0" x1="38497.66" y1="29038.27" x2="38499.95" y2= "29310.08" />
  <path class="fil0 str0" d="M39332.52 29038.27l-832.57 0m-832.57 0l-2.29 0"/>
  <line class="fil0 str0" x1="38499.95" y1="29310.08" x2="37665.09" y2= "29310.08" />
  <line class="fil0 str0" x1="36832.52" y1="28010.07" x2="36832.52" y2= "29038.27" />
  <line class="fil0 str0" x1="39332.52" y1="28010.07" x2="39332.52" y2= "29038.27" />
  <line class="fil0 str0" x1="45246.71" y1="24762.52" x2="45296.71" y2= "24762.52" />
  <line class="fil0 str0" x1="46396.71" y1="24762.52" x2="46446.71" y2= "24762.52" />
  <line class="fil0 str0" x1="45246.71" y1="32262.52" x2="45296.71" y2= "32262.52" />
  <line class="fil0 str0" x1="46446.71" y1="32262.52" x2="46396.71" y2= "32262.52" />
  <line class="fil0 str0" x1="44346.71" y1="29795.29" x2="44346.71" y2= "29715.5" />
  <line class="fil0 str0" x1="47346.71" y1="29715.5" x2="47346.71" y2= "29795.29" />
  <path class="fil0 str0" d="M44346.71 29715.5l300 0m2400 0l300 0"/>
  <path class="fil0 str0" d="M44346.71 31146.53l300 0m2400 0l300 0"/>
  <line class="fil0 str0" x1="44646.71" y1="31252.83" x2="44646.71" y2= "31146.53" />
  <line class="fil0 str0" x1="47046.71" y1="31234.16" x2="47046.71" y2= "31146.53" />
  <path class="fil0 str0" d="M44346.71 25863.91l300 0m2400 0l300 0"/>
  <line class="fil0 str0" x1="44646.71" y1="25793.85" x2="44646.71" y2= "25863.91" />
  <line class="fil0 str0" x1="47046.71" y1="25809.83" x2="47046.71" y2= "25863.91" />
  <path class="fil0 str0" d="M41141.76 29719.57l0 -2440.36m0 -1497.27l0 -1015.35 600 0m1200 0l600 0 0 1015.35m0 1497.27l0 2440.36m0 1556l0 991.02 -600 0m-1200 0l-600 0 0 -991.02"/>
  <path class="fil0 str0" d="M40841.76 27248.82l0 -1380.84m300 -1101.39l0 1015.35m0 1497.27l0 2440.36m0 1556l0 991.02m-300 -1115.99l0 -1351.24"/>
  <path class="fil0 str0" d="M43841.76 29799.36l0 1351.24m-300 1115.99l0 -991.02m0 -1556l0 -2440.36m0 -1497.27l0 -1015.35m300 1101.39l0 1380.84"/>
  <path class="fil0 str0" d="M43841.76 27248.82l-300 0m-2400 0l-300 0"/>
  <line class="fil0 str0" x1="43541.76" y1="27279.21" x2="43541.76" y2= "27248.82" />
  <line class="fil0 str0" x1="41141.76" y1="27279.21" x2="41141.76" y2= "27248.82" />
  <line class="fil0 str0" x1="41141.76" y1="25781.94" x2="41141.76" y2= "25813.9" />
  <line class="fil0 str0" x1="43541.76" y1="25781.94" x2="43541.76" y2= "25813.9" />
  <line class="fil0 str0" x1="41141.76" y1="31275.57" x2="41141.76" y2= "31238.23" />
  <line class="fil0 str0" x1="43541.76" y1="31275.57" x2="43541.76" y2= "31238.23" />
  <line class="fil0 str0" x1="41791.76" y1="24466.59" x2="42891.76" y2= "24466.59" />
  <polyline class="fil0 str0" points="42891.76,32266.59 42891.76,32566.59 41791.76,32566.59 41791.76,32266.59 "/>
  <polyline class="fil0 str0" points="41791.76,24766.59 41791.76,24466.59 42891.76,24466.59 42891.76,24766.59 "/>
  <line class="fil0 str0" x1="41741.76" y1="24766.59" x2="41791.76" y2= "24766.59" />
  <line class="fil0 str0" x1="42891.76" y1="24766.59" x2="42941.76" y2= "24766.59" />
  <line class="fil0 str0" x1="41741.76" y1="32266.59" x2="41791.76" y2= "32266.59" />
  <line class="fil0 str0" x1="42941.76" y1="32266.59" x2="42891.76" y2= "32266.59" />
  <line class="fil0 str0" x1="40841.76" y1="29799.36" x2="40841.76" y2= "29719.57" />
  <line class="fil0 str0" x1="43841.76" y1="29719.57" x2="43841.76" y2= "29799.36" />
  <path class="fil0 str0" d="M40841.76 29719.57l300 0m2400 0l300 0"/>
  <path class="fil0 str0" d="M40841.76 31150.6l300 0m2400 0l300 0"/>
  <line class="fil0 str0" x1="41141.76" y1="31256.9" x2="41141.76" y2= "31150.6" />
  <line class="fil0 str0" x1="43541.76" y1="31238.23" x2="43541.76" y2= "31150.6" />
  <path class="fil0 str0" d="M40841.76 25867.98l300 0m2400 0l300 0"/>
  <line class="fil0 str0" x1="41141.76" y1="25797.92" x2="41141.76" y2= "25867.98" />
  <line class="fil0 str0" x1="43541.76" y1="25813.9" x2="43541.76" y2= "25867.98" />
  <line class="fil0 str0" x1="32244.78" y1="21319.58" x2="47344.78" y2= "21319.58" />
  <path class="fil0 str0" d="M55010.77 6632.78l1600 0m650 0l150.38 0m7081.49 0l150.33 0m649.99 0l1600 0"/>
  <path class="fil0 str0" d="M53258.6 15334.41l875 0m875 -4701.68l0 -2998.32"/>
  <path class="fil0 str0" d="M68645.42 15324.38l-875 0m-875 0l0 -515.43m0 -1100l0 -1174.5m0 -1110.02l0 -3800.05"/>
  <line class="fil0 str0" x1="53258.6" y1="15334.41" x2="53558.6" y2= "15334.41" />
  <path class="fil0 str0" d="M53258.6 15334.41l875 0m875 0l2.4 0m0 271.81l-877.4 0"/>
  <path class="fil0 str0" d="M53258.6 15334.41l875 0m875 0l2.4 0m0 271.81l-877.4 0"/>
  <path class="fil0 str0" d="M53258.6 15334.41l875 0m875 0l2.4 0m0 271.81l-877.4 0"/>
  <path class="fil0 str0" d="M67770.42 15624.38l-875 0 0 -300m875 0l875 0"/>
  <polyline class="fil0 str0" points="55010.77,7183.53 55010.77,6632.78 56610.77,6632.78 "/>
  <line class="fil0 str0" x1="66892.96" y1="6632.78" x2="65292.96" y2= "6632.78" />
  <polyline class="fil0 str0" points="57260.77,6632.78 57260.77,9132.78 56860.77,9132.78 56860.77,6632.78 "/>
  <polyline class="fil0 str0" points="65042.97,6632.78 65042.97,9132.78 64642.97,9132.78 64642.97,6632.78 "/>
  <polyline class="fil0 str0" points="58452.07,6632.78 58452.07,8132.78 58052.06,8132.78 58052.06,6632.78 "/>
  <polyline class="fil0 str0" points="63451.67,6632.78 63451.67,8132.78 63851.66,8132.78 63851.66,6632.78 "/>
  <line class="fil0 str0" x1="60953.21" y1="15506.18" x2="60958.6" y2= "15506.18" />
  <path class="fil0 str0" d="M56953.21 15506.18l0 -973.96m1244.58 -1026.04l1503.48 0"/>
  <path class="fil0 str0" d="M62488.2 13506.18l1521.81 0m943.2 1026.04l0 973.96m-3994.61 0l-5.39 0"/>
  <path class="fil0 str0" d="M64947.82 15506.19l5.39 0 0 1391.26m-924.87 1108.74l-1540.14 0"/>
  <path class="fil0 str0" d="M59701.27 18006.19l-1503.48 0m-1244.58 -1108.74l0 -1391.27"/>
  <line class="fil0 str0" x1="54133.6" y1="15334.41" x2="54133.6" y2= "15606.22" />
  <line class="fil0 str0" x1="67770.42" y1="15324.38" x2="67770.42" y2= "15624.38" />
  <line class="fil0 str0" x1="68645.42" y1="16640.13" x2="68658.6" y2= "16640.13" />
  <line class="fil0 str0" x1="68645.42" y1="18143.44" x2="68658.6" y2= "18143.44" />
  <path class="fil0 str0" d="M59701.27 13188.22l2786.93 0m1521.81 0l1228.1 0 0 1344m0 2365.23l0 1402.5 -1209.77 0m-1540.14 0l-2786.93 0m-1503.48 0l-1544.82 0 0 -1402.5m0 -2365.23l0 -1344 1544.82 0"/>
  <line class="fil0 str0" x1="58197.79" y1="13188.22" x2="58197.79" y2= "13506.18" />
  <line class="fil0 str0" x1="64010.01" y1="13188.22" x2="64010.01" y2= "13506.18" />
  <line class="fil0 str0" x1="64028.34" y1="18006.19" x2="64028.34" y2= "18299.95" />
  <line class="fil0 str0" x1="58197.79" y1="18006.19" x2="58197.79" y2= "18299.95" />
  <line class="fil0 str0" x1="59701.27" y1="13188.22" x2="59701.27" y2= "13506.18" />
  <line class="fil0 str0" x1="59701.27" y1="18299.95" x2="59701.27" y2= "18006.19" />
  <line class="fil0 str0" x1="62488.2" y1="13188.22" x2="62488.2" y2= "13506.18" />
  <line class="fil0 str0" x1="62488.2" y1="18006.19" x2="62488.2" y2= "18299.95" />
  <line class="fil0 str0" x1="56652.97" y1="14532.22" x2="56953.21" y2= "14532.22" />
  <line class="fil0 str0" x1="64953.21" y1="16897.45" x2="65238.11" y2= "16897.45" />
  <line class="fil0 str0" x1="65238.11" y1="14532.22" x2="64953.21" y2= "14532.22" />
  <line class="fil0 str0" x1="56652.97" y1="16897.45" x2="56953.21" y2= "16897.45" />
  <path class="fil0 str0" d="M54793.27 23434.41l3006.46 0m1693.87 0l0 -300"/>
  <path class="fil0 str0" d="M62500.6 23134.41l0 300m1699.97 0l2982.21 0"/>
  <line class="fil0 str0" x1="59493.6" y1="23134.41" x2="62500.6" y2= "23134.41" />
  <path class="fil0 str0" d="M53558.6 20024.41l-300 0m0 494.11l0 1527.48"/>
  <path class="fil0 str0" d="M53558.6 18792.41l-300 0m0 -648.97l0 -1503.31m0 -1305.72l300 0"/>
  <path class="fil0 str0" d="M68345.42 15324.38l300 0m0 1315.75l0 2142.25 -300 0"/>
  <polyline class="fil0 str0" points="68358.6,20024.41 68658.6,20024.41 68658.6,23434.41 "/>
  <line class="fil0 str0" x1="53558.6" y1="18792.41" x2="53558.6" y2= "20024.41" />
  <line class="fil0 str0" x1="68345.42" y1="18782.38" x2="68358.6" y2= "20024.41" />
  <line class="fil0 str0" x1="57799.73" y1="23434.41" x2="59493.6" y2= "23434.41" />
  <line class="fil0 str0" x1="62500.6" y1="23434.41" x2="64200.57" y2= "23434.41" />
  <line class="fil0 str0" x1="67182.78" y1="23434.41" x2="68358.6" y2= "23434.41" />
  <line class="fil0 str0" x1="68358.6" y1="23434.41" x2="68658.6" y2= "23434.41" />
  <line class="fil0 str0" x1="54793.27" y1="23434.41" x2="53558.6" y2= "23434.41" />
  <line class="fil0 str0" x1="53258.6" y1="22046" x2="53258.6" y2= "23434.41" />
  <line class="fil0 str0" x1="53558.6" y1="23434.41" x2="53258.6" y2= "23434.41" />
  <line class="fil0 str0" x1="53258.6" y1="20024.41" x2="53258.6" y2= "20518.52" />
  <line class="fil0 str0" x1="53258.6" y1="15334.41" x2="53258.6" y2= "15606.22" />
  <line class="fil0 str0" x1="53258.6" y1="18143.44" x2="53258.6" y2= "18792.41" />
  <line class="fil0 str0" x1="53258.6" y1="15606.22" x2="53258.6" y2= "16640.13" />
  <line class="fil0 str0" x1="68645.42" y1="15324.38" x2="68645.42" y2= "16640.13" />
  <line class="fil0 str0" x1="55008.6" y1="15334.41" x2="55011" y2= "15606.22" />
  <line class="fil0 str0" x1="55010.77" y1="7183.53" x2="55008.6" y2= "7634.41" />
  <line class="fil0 str0" x1="66892.96" y1="6632.78" x2="66895.42" y2= "7624.38" />
  <path class="fil0 str0" d="M58224.21 24085.79l0 1141.61m-5000 -320.66l0 -239.97m0 -300l0 -280.98"/>
  <polyline class="fil0 str0" points="53224.21,24366.77 55724.21,24366.77 55724.21,24666.77 53224.21,24666.77 "/>
  <line class="fil0 str0" x1="58224.21" y1="24906.74" x2="58224.21" y2= "25227.4" />
  <line class="fil0 str0" x1="57122.89" y1="27196.5" x2="53224.21" y2= "27196.5" />
  <circle class="fil0 str0" cx="56224.26" cy="25217.07" r="150"/>
  <circle class="fil0 str0" cx="56224.26" cy="26877.64" r="150"/>
  <circle class="fil0 str0" cx="53724.26" cy="25217.07" r="150"/>
  <circle class="fil0 str0" cx="53724.26" cy="26877.64" r="150"/>
  <circle class="fil0 str0" cx="54224.26" cy="26047.36" r="500"/>
  <line class="fil0 str0" x1="53224.21" y1="24085.79" x2="58224.21" y2= "24085.79" />
  <line class="fil0 str0" x1="58224.21" y1="25227.4" x2="57122.89" y2= "27196.5" />
  <line class="fil0 str0" x1="53224.21" y1="24906.74" x2="53224.21" y2= "27196.5" />
  <path class="fil0 str0" d="M58137.73 27970.77l0 1141.61m-5000 -320.66l0 -239.97m0 -300l0 -280.98"/>
  <polyline class="fil0 str0" points="53137.73,28251.75 55637.73,28251.75 55637.73,28551.75 53137.73,28551.75 "/>
  <line class="fil0 str0" x1="58137.73" y1="28791.72" x2="58137.73" y2= "29112.38" />
  <line class="fil0 str0" x1="57036.41" y1="31081.48" x2="53137.73" y2= "31081.48" />
  <circle class="fil0 str0" cx="56137.78" cy="29102.05" r="150"/>
  <circle class="fil0 str0" cx="56137.78" cy="30762.62" r="150"/>
  <circle class="fil0 str0" cx="53637.78" cy="29102.05" r="150"/>
  <circle class="fil0 str0" cx="53637.78" cy="30762.62" r="150"/>
  <circle class="fil0 str0" cx="54137.78" cy="29932.34" r="500"/>
  <line class="fil0 str0" x1="53137.73" y1="27970.77" x2="58137.73" y2= "27970.77" />
  <line class="fil0 str0" x1="58137.73" y1="29112.38" x2="57036.41" y2= "31081.48" />
  <line class="fil0 str0" x1="53137.73" y1="28791.72" x2="53137.73" y2= "31081.48" />
  <line class="fil0 str0" x1="57411.15" y1="6632.78" x2="58052.07" y2= "6632.78" />
  <line class="fil0 str0" x1="58451.85" y1="6632.78" x2="63451.96" y2= "6632.78" />
  <line class="fil0 str0" x1="63851.67" y1="6632.78" x2="64492.64" y2= "6632.78" />
  <line class="fil0 str0" x1="56610.77" y1="6632.78" x2="56860.77" y2= "6632.78" />
  <line class="fil0 str0" x1="65292.96" y1="6632.78" x2="65042.97" y2= "6632.78" />
  <rect class="fil0 str0" x="55279.93" y="19805.01" width="1000" height="1500"/>
  <rect class="fil0 str0" x="59141.04" y="12088.15" width="3621.63" height="500"/>
  <line class="fil0 str0" x1="64634.68" y1="10304.52" x2="65738.66" y2= "10464.81" />
  <line class="fil0 str0" x1="56165.08" y1="10464.81" x2="57269.06" y2= "10304.52" />
  <path class="fil0 str0" d="M55011 12534.45l0 1174.5m0 1100l0 797.27m300 -797.27l0 -1100m0 -1174.5l0 -1100m-300 -801.7l0 801.7"/>
  <path class="fil0 str0" d="M66895.42 13708.95l0 -1174.5m0 -1110.02l0 -773.52m-300 783.55l0 1099.99m0 1174.5l0 1100m300 815.43l0 -815.43"/>
  <line class="fil0 str0" x1="55008.6" y1="12199.42" x2="55011" y2= "12199.42" />
  <line class="fil0 str0" x1="55008.6" y1="12199.42" x2="55011" y2= "12199.42" />
  <line class="fil0 str0" x1="55008.6" y1="15334.41" x2="55011" y2= "15606.22" />
  <path class="fil0 str0" d="M55011 12534.45l0 1174.5m0 1100l0 797.27m300 -797.27l0 -1100m0 -1174.5l0 -1100m-300 -801.7l0 801.7"/>
  <line class="fil0 str0" x1="55008.6" y1="12199.42" x2="55011" y2= "12199.42" />
  <line class="fil0 str0" x1="55008.6" y1="12199.42" x2="55011" y2= "12199.42" />
  <line class="fil0 str0" x1="55011" y1="11434.45" x2="55311" y2= "11434.45" />
  <line class="fil0 str0" x1="55011" y1="12534.45" x2="55311" y2= "12534.45" />
  <line class="fil0 str0" x1="55008.6" y1="13708.95" x2="55311" y2= "13708.95" />
  <line class="fil0 str0" x1="55011" y1="14808.95" x2="55311" y2= "14808.95" />
  <line class="fil0 str0" x1="66595.42" y1="14808.95" x2="66895.42" y2= "14808.95" />
  <line class="fil0 str0" x1="66595.42" y1="13708.95" x2="66895.42" y2= "13708.95" />
  <line class="fil0 str0" x1="66595.42" y1="12534.45" x2="66895.42" y2= "12534.45" />
  <line class="fil0 str0" x1="66595.42" y1="11434.46" x2="66895.42" y2= "11424.43" />
  <circle class="fil0 str0" cx="59612.09" cy="22255.75" r="150"/>
  <circle class="fil0 str0" cx="62382.09" cy="22255.75" r="150"/>
  <circle class="fil0 str0" cx="62382.09" cy="19905.75" r="150"/>
  <circle class="fil0 str0" cx="59612.09" cy="19905.75" r="150"/>
  <circle class="fil0 str0" cx="59076.86" cy="7232.75" r="150"/>
  <circle class="fil0 str0" cx="62826.86" cy="7232.75" r="150"/>
  <circle class="fil0 str0" cx="62826.86" cy="10932.75" r="150"/>
  <circle class="fil0 str0" cx="59076.86" cy="10932.75" r="150"/>
  <path class="fil0 str0" d="M55008.46 11032.75l2.54 -0.37m1210.96 -175.83l1103.98 -160.29"/>
  <line class="fil0 str0" x1="56165.08" y1="10464.82" x2="56221.96" y2= "10856.56" />
  <line class="fil0 str0" x1="57269.06" y1="10304.52" x2="57325.94" y2= "10696.27" />
  <line class="fil0 str0" x1="65738.66" y1="10464.81" x2="64634.68" y2= "10304.52" />
  <line class="fil0 str0" x1="65681.78" y1="10856.55" x2="64577.8" y2= "10696.26" />
  <line class="fil0 str0" x1="65738.66" y1="10464.82" x2="65681.78" y2= "10856.56" />
  <line class="fil0 str0" x1="64634.68" y1="10304.52" x2="64577.8" y2= "10696.27" />
  <path class="fil0 str0" d="M63332.98 27545.17l0 -1000.04m0 -1274.5l0 -1000.04"/>
  <path class="fil0 str0" d="M63332.98 27545.17l0 -1000.04m0 -1274.5l0 -1000.04"/>
  <line class="fil0 str0" x1="63032.98" y1="24270.59" x2="63332.98" y2= "24270.59" />
  <line class="fil0 str0" x1="63032.98" y1="25270.63" x2="63332.98" y2= "25270.63" />
  <line class="fil0 str0" x1="63030.58" y1="26545.13" x2="63332.98" y2= "26545.13" />
  <line class="fil0 str0" x1="63032.98" y1="27545.17" x2="63332.98" y2= "27545.17" />
  <line class="fil0 str0" x1="67702.04" y1="27138.6" x2="67696.61" y2= "27546.69" />
  <path class="fil0 str0" d="M67702.04 27546.69l0 -1000.04m0 -1274.5l0 -1010.07m-300 -328.78l0 338.81m0 1000.04l0 1274.5m0 1000.04l0 432.71"/>
  <line class="fil0 str0" x1="67402.04" y1="27546.69" x2="67702.04" y2= "27546.69" />
  <line class="fil0 str0" x1="67402.04" y1="26546.65" x2="67702.04" y2= "26546.65" />
  <line class="fil0 str0" x1="67402.04" y1="25272.15" x2="67702.04" y2= "25272.15" />
  <line class="fil0 str0" x1="67402.04" y1="24272.11" x2="67702.04" y2= "24262.08" />
  <path class="fil0 str0" d="M64002.04 25272.15l0 1274.5m0 1000.04l0 432.71m3400 0l0 -432.71m0 -1000.04l0 -1274.5m0 -1000.04l0 -338.81m-3400 0l0 328.78"/>
  <path class="fil0 str0" d="M64002.04 24262.08l0 -328.78m-300 338.81l0 1000.04m0 1274.5l0 1000.04m300 432.71l0 -432.71m0 -1000.04l0 -1274.5"/>
  <line class="fil0 str0" x1="63702.04" y1="27546.69" x2="64002.04" y2= "27546.69" />
  <line class="fil0 str0" x1="63702.04" y1="26546.65" x2="64002.04" y2= "26546.65" />
  <line class="fil0 str0" x1="63702.04" y1="25272.15" x2="64002.04" y2= "25272.15" />
  <line class="fil0 str0" x1="63702.04" y1="24272.11" x2="64002.04" y2= "24262.08" />
  <path class="fil0 str0" d="M59632.98 23946.3l0 324.29m0 1000.04l0 1274.5m0 1000.04l0 423.61"/>
  <line class="fil0 str0" x1="59332.98" y1="27118.92" x2="59333.78" y2= "27545.17" />
  <path class="fil0 str0" d="M59332.98 24270.59l0 1000.04m0 1274.5l0 1000.04m300 423.61l0 -423.61m0 -1000.04l0 -1274.5m0 -1000.04l0 -324.29"/>
  <line class="fil0 str0" x1="59330.58" y1="24985.6" x2="59332.98" y2= "24985.6" />
  <line class="fil0 str0" x1="59330.58" y1="26625.95" x2="59332.98" y2= "26625.95" />
  <line class="fil0 str0" x1="59330.58" y1="24985.6" x2="59332.98" y2= "24985.6" />
  <line class="fil0 str0" x1="59330.58" y1="26625.95" x2="59332.98" y2= "26625.95" />
  <path class="fil0 str0" d="M59332.98 24270.59l0 1000.04m0 1274.5l0 1000.04m300 423.61l0 -423.61m0 -1000.04l0 -1274.5m0 -1000.04l0 -324.29"/>
  <line class="fil0 str0" x1="59330.58" y1="24985.6" x2="59332.98" y2= "24985.6" />
  <line class="fil0 str0" x1="59330.58" y1="26625.95" x2="59332.98" y2= "26625.95" />
  <line class="fil0 str0" x1="59330.58" y1="24985.6" x2="59332.98" y2= "24985.6" />
  <line class="fil0 str0" x1="59330.58" y1="26625.95" x2="59332.98" y2= "26625.95" />
  <line class="fil0 str0" x1="59332.98" y1="24270.59" x2="59632.98" y2= "24270.59" />
  <line class="fil0 str0" x1="59332.98" y1="25270.63" x2="59632.98" y2= "25270.63" />
  <line class="fil0 str0" x1="59330.58" y1="26545.13" x2="59632.98" y2= "26545.13" />
  <line class="fil0 str0" x1="59332.98" y1="27545.17" x2="59632.98" y2= "27545.17" />
  <line class="fil0 str0" x1="63032.98" y1="25270.63" x2="63030.58" y2= "26545.13" />
  <line class="fil0 str0" x1="63032.98" y1="23946.3" x2="63032.98" y2= "24270.59" />
  <line class="fil0 str0" x1="63032.98" y1="27545.17" x2="63032.98" y2= "27968.8" />
  <line class="fil0 str0" x1="59632.98" y1="27968.78" x2="63032.98" y2= "27968.8" />
  <line class="fil0 str0" x1="64002.04" y1="27979.4" x2="67402.04" y2= "27979.4" />
  <line class="fil0 str0" x1="59632.98" y1="23946.3" x2="63032.98" y2= "23946.3" />
  <line class="fil0 str0" x1="64002.04" y1="23933.3" x2="67402.04" y2= "23933.3" />
  <path class="fil0 str0" d="M60740.49 28421.1l1063.61 0m1166.29 293.02l-1166.29 0m-1063.61 0l-1190.1 0"/>
  <line class="fil0 str0" x1="61804.1" y1="28421.1" x2="61804.1" y2= "28714.12" />
  <line class="fil0 str0" x1="60740.49" y1="28421.1" x2="60740.49" y2= "28714.12" />
  <path class="fil0 str0" d="M60740.49 32328.08l-1190.1 0 0 -3613.96 1190.1 0m1063.61 0l1166.29 0 0 3613.96 -1166.29 0"/>
  <path class="fil0 str0" d="M61804.1 32328.08l1166.29 0m-1166.29 293.02l-1063.61 0m-1190.1 -293.02l1190.1 0"/>
  <line class="fil0 str0" x1="61804.1" y1="32328.08" x2="61804.1" y2= "32621.1" />
  <line class="fil0 str0" x1="60740.49" y1="32328.08" x2="60740.49" y2= "32621.1" />
  <path class="fil0 str0" d="M64985.97 28406.38l1063.61 0m1166.29 293.02l-1166.29 0m-1063.61 0l-1190.1 0"/>
  <line class="fil0 str0" x1="66049.58" y1="28406.38" x2="66049.58" y2= "28699.4" />
  <line class="fil0 str0" x1="64985.97" y1="28406.38" x2="64985.97" y2= "28699.4" />
  <path class="fil0 str0" d="M64985.97 32313.36l-1190.1 0 0 -3613.96 1190.1 0m1063.61 0l1166.29 0 0 3613.96 -1166.29 0"/>
  <path class="fil0 str0" d="M66049.58 32313.36l1166.29 0m-1166.29 293.02l-1063.61 0m-1190.1 -293.02l1190.1 0"/>
  <line class="fil0 str0" x1="66049.58" y1="32313.36" x2="66049.58" y2= "32606.38" />
  <line class="fil0 str0" x1="64985.97" y1="32313.36" x2="64985.97" y2= "32606.38" />
 </g>
</svg>
